<?xml version="1.0" encoding="utf-8"?>
<!-- Generator: Adobe Illustrator 28.0.0, SVG Export Plug-In . SVG Version: 6.00 Build 0)  -->
<svg version="1.1" id="Layer_1" xmlns="http://www.w3.org/2000/svg" xmlns:xlink="http://www.w3.org/1999/xlink" x="0px" y="0px"
	 viewBox="0 0 260 260" style="enable-background:new 0 0 260 260;" xml:space="preserve">
<style type="text/css">
	.st0{fill:#828486;}
</style>
<path class="st0" d="M249.2,0H10.81C4.84,0,0,4.84,0,10.8v21.79h73.28c0.08,0.48,0.21,0.91,0.36,1.35L0,78.43v3.41l75.17-45.38
	c0.1,0.12,0.21,0.23,0.32,0.34v0.01c0.54,0.54,1.16,1,1.83,1.37L38.98,155.9l-12.64-23.4c0.22-0.18,0.43-0.37,0.63-0.57
	c1.45-1.45,2.35-3.45,2.35-5.67c0-2.21-0.9-4.22-2.35-5.67h-0.01c-1.45-1.45-3.45-2.35-5.66-2.35c-0.86,0-1.68,0.14-2.46,0.38
	L0,83.72v6.18l16.28,30.13c-0.21,0.17-0.42,0.36-0.63,0.57c-1.45,1.45-2.34,3.45-2.34,5.66c0,1.37,0.34,2.67,0.95,3.79L0,141.53
	v3.75l16.09-12.94c1.41,1.2,3.24,1.94,5.22,1.94c0.86,0,1.7-0.15,2.46-0.4l13.26,24.57L0,163.72v85.48c0,5.97,4.84,10.8,10.81,10.8
	H249.2c5.97,0,10.8-4.84,10.8-10.8V10.8C260,4.84,255.16,0,249.2,0z M21.31,131.35c-1.4,0-2.67-0.57-3.59-1.48
	c-0.13-0.13-0.25-0.27-0.37-0.41l0,0c-0.7-0.87-1.12-1.98-1.12-3.18c0-1.41,0.57-2.68,1.48-3.59c0.92-0.92,2.19-1.48,3.59-1.48
	c1.41,0,2.68,0.57,3.59,1.49c0.92,0.92,1.49,2.19,1.49,3.59s-0.57,2.67-1.49,3.59C23.99,130.78,22.72,131.35,21.31,131.35z
	 M227.86,57.79l0,12.14l-50.42,39.19l-3.99-41.84l25.95-25.71L227.86,57.79z M184.74,22.05h5.47l7.22,17.35L173.1,63.52l-3.02-31.66
	L184.74,22.05z M170.48,66.83l0.01,0.08l4.21,44.14l-32.61,16.31l-19.73-32.07l45.09-60.26L170.48,66.83z M143.62,129.86
	l27.26-13.63l-20.22,25.06L143.62,129.86z M148.07,142.68l-42.04,5.97l34.95-17.48L148.07,142.68z M86.82,36.8
	c1.12-1.12,1.91-2.57,2.21-4.2h76.59l-44.91,60.02L86.53,37.07C86.63,36.98,86.72,36.89,86.82,36.8z M118.82,95.14l-23.36,31.22
	l-11.8-87.61c0.13-0.04,0.25-0.09,0.38-0.13L118.82,95.14z M76.82,33.79l-0.02-0.03l-0.01-0.02c-0.45-0.76-0.71-1.65-0.71-2.6
	c0-1.41,0.57-2.68,1.48-3.59c0.92-0.92,2.19-1.48,3.59-1.48c1.41,0,2.68,0.57,3.59,1.49c0.92,0.92,1.49,2.19,1.49,3.59
	c0,1.4-0.57,2.67-1.49,3.59c-0.92,0.92-2.19,1.49-3.59,1.49c-1.4,0-2.67-0.57-3.59-1.48C77.27,34.44,77.03,34.13,76.82,33.79z
	 M80.1,39.07c0.21,0.03,0.43,0.05,0.65,0.06l14.09,104.62c-1.2,0.4-2.28,1.07-3.16,1.95l-0.01,0.01c-1.37,1.38-2.25,3.25-2.34,5.32
	l-47.91,6.8L80.1,39.07z M40.78,244.04v-77.09l28.11,67.65c0.14,0.34,0.4,0.6,0.71,0.76l15.63,8.68H40.78z M70.09,229.84
	l-28.69-69.05l48.36-6.87c0.4,1.18,1.07,2.24,1.93,3.1v0.01c0.54,0.54,1.15,1,1.82,1.37L70.09,229.84z M100.94,154.96
	c-0.92,0.92-2.19,1.49-3.59,1.49c-1.4,0-2.67-0.57-3.59-1.48c-0.92-0.92-1.48-2.19-1.48-3.59c0-1.41,0.57-2.68,1.48-3.59
	c0.92-0.92,2.19-1.48,3.59-1.48c1.41,0,2.68,0.57,3.59,1.49c0.92,0.92,1.49,2.19,1.49,3.59S101.86,154.04,100.94,154.96z
	 M103.01,145.7L103.01,145.7c-1.37-1.36-3.22-2.24-5.27-2.34l-1.73-12.87l24.45-32.67l18.99,30.86l-35.71,17.86
	C103.52,146.24,103.28,145.96,103.01,145.7z M105.35,151.71l44.12-6.26l26.1,81.83l-71.61-71.38
	C104.78,154.69,105.29,153.25,105.35,151.71z M158.36,244.04l-52.59-82.21l71.93,71.7c0.08,0.09,0.18,0.17,0.29,0.24l15.99,10.27
	H158.36z M236.1,105.63l-55.09,4.43l48.31-37.55l22.26,17.64L236.1,105.63z"/>
</svg>
